<mxfile host="app.diagrams.net" modified="2023-04-04T06:44:56.709Z" agent="Mozilla/5.0 (Windows NT 10.0; Win64; x64) AppleWebKit/537.36 (KHTML, like Gecko) Chrome/111.0.0.0 Safari/537.36" etag="IfhBUMEWf-etZNyMV3l5" version="21.1.4" type="device">
  <diagram id="C5RBs43oDa-KdzZeNtuy" name="Page-1">
    <mxGraphModel dx="1178" dy="689" grid="1" gridSize="10" guides="1" tooltips="1" connect="1" arrows="1" fold="1" page="1" pageScale="1" pageWidth="827" pageHeight="1169" math="0" shadow="0">
      <root>
        <mxCell id="WIyWlLk6GJQsqaUBKTNV-0" />
        <mxCell id="WIyWlLk6GJQsqaUBKTNV-1" parent="WIyWlLk6GJQsqaUBKTNV-0" />
        <mxCell id="w84LQEqxJyQ2vn-Dilfo-0" value="User" style="shape=folder;fontStyle=1;tabWidth=110;tabHeight=30;tabPosition=left;html=1;boundedLbl=1;labelInHeader=1;container=1;collapsible=0;recursiveResize=0;" parent="WIyWlLk6GJQsqaUBKTNV-1" vertex="1">
          <mxGeometry x="677" y="310" width="150" height="100" as="geometry" />
        </mxCell>
        <mxCell id="w84LQEqxJyQ2vn-Dilfo-1" value="User" style="html=1;" parent="w84LQEqxJyQ2vn-Dilfo-0" vertex="1">
          <mxGeometry width="110" height="30" relative="1" as="geometry">
            <mxPoint x="20" y="50" as="offset" />
          </mxGeometry>
        </mxCell>
        <mxCell id="w84LQEqxJyQ2vn-Dilfo-11" value="" style="edgeStyle=orthogonalEdgeStyle;rounded=0;orthogonalLoop=1;jettySize=auto;html=1;" parent="WIyWlLk6GJQsqaUBKTNV-1" source="w84LQEqxJyQ2vn-Dilfo-2" target="w84LQEqxJyQ2vn-Dilfo-0" edge="1">
          <mxGeometry relative="1" as="geometry">
            <mxPoint x="367" y="190" as="targetPoint" />
          </mxGeometry>
        </mxCell>
        <mxCell id="w84LQEqxJyQ2vn-Dilfo-2" value="Cafe" style="shape=folder;fontStyle=1;tabWidth=110;tabHeight=30;tabPosition=left;html=1;boundedLbl=1;labelInHeader=1;container=1;collapsible=0;recursiveResize=0;" parent="WIyWlLk6GJQsqaUBKTNV-1" vertex="1">
          <mxGeometry x="526" y="140" width="150" height="100" as="geometry" />
        </mxCell>
        <mxCell id="w84LQEqxJyQ2vn-Dilfo-3" value="Cafe" style="html=1;" parent="w84LQEqxJyQ2vn-Dilfo-2" vertex="1">
          <mxGeometry width="110" height="30" relative="1" as="geometry">
            <mxPoint x="20" y="50" as="offset" />
          </mxGeometry>
        </mxCell>
        <mxCell id="w84LQEqxJyQ2vn-Dilfo-43" style="edgeStyle=orthogonalEdgeStyle;rounded=0;orthogonalLoop=1;jettySize=auto;html=1;exitX=0;exitY=0;exitDx=270;exitDy=65;exitPerimeter=0;entryX=0;entryY=0;entryDx=0;entryDy=65;entryPerimeter=0;" parent="WIyWlLk6GJQsqaUBKTNV-1" source="w84LQEqxJyQ2vn-Dilfo-4" target="w84LQEqxJyQ2vn-Dilfo-2" edge="1">
          <mxGeometry relative="1" as="geometry">
            <Array as="points">
              <mxPoint x="486" y="305" />
              <mxPoint x="486" y="205" />
            </Array>
          </mxGeometry>
        </mxCell>
        <mxCell id="w84LQEqxJyQ2vn-Dilfo-4" value="Seat" style="shape=folder;fontStyle=1;tabWidth=110;tabHeight=30;tabPosition=left;html=1;boundedLbl=1;labelInHeader=1;container=1;collapsible=0;recursiveResize=0;" parent="WIyWlLk6GJQsqaUBKTNV-1" vertex="1">
          <mxGeometry x="206" y="240" width="270" height="100" as="geometry" />
        </mxCell>
        <mxCell id="w84LQEqxJyQ2vn-Dilfo-5" value="Seat" style="html=1;" parent="w84LQEqxJyQ2vn-Dilfo-4" vertex="1">
          <mxGeometry width="110" height="30" relative="1" as="geometry">
            <mxPoint x="20" y="50" as="offset" />
          </mxGeometry>
        </mxCell>
        <mxCell id="w84LQEqxJyQ2vn-Dilfo-13" value="Usage" style="html=1;" parent="w84LQEqxJyQ2vn-Dilfo-4" vertex="1">
          <mxGeometry x="140" y="50.000000000000114" width="110" height="30" as="geometry" />
        </mxCell>
        <mxCell id="w84LQEqxJyQ2vn-Dilfo-20" value="" style="edgeStyle=orthogonalEdgeStyle;rounded=0;orthogonalLoop=1;jettySize=auto;html=1;" parent="WIyWlLk6GJQsqaUBKTNV-1" source="w84LQEqxJyQ2vn-Dilfo-17" target="w84LQEqxJyQ2vn-Dilfo-2" edge="1">
          <mxGeometry relative="1" as="geometry" />
        </mxCell>
        <mxCell id="w84LQEqxJyQ2vn-Dilfo-27" style="edgeStyle=orthogonalEdgeStyle;rounded=0;orthogonalLoop=1;jettySize=auto;html=1;exitX=0;exitY=0;exitDx=150;exitDy=65;exitPerimeter=0;entryX=0.496;entryY=0;entryDx=0;entryDy=0;entryPerimeter=0;" parent="WIyWlLk6GJQsqaUBKTNV-1" source="w84LQEqxJyQ2vn-Dilfo-17" target="w84LQEqxJyQ2vn-Dilfo-0" edge="1">
          <mxGeometry relative="1" as="geometry" />
        </mxCell>
        <mxCell id="w84LQEqxJyQ2vn-Dilfo-17" value="Follow" style="shape=folder;fontStyle=1;tabWidth=110;tabHeight=30;tabPosition=left;html=1;boundedLbl=1;labelInHeader=1;container=1;collapsible=0;recursiveResize=0;" parent="WIyWlLk6GJQsqaUBKTNV-1" vertex="1">
          <mxGeometry x="526" width="150" height="100" as="geometry" />
        </mxCell>
        <mxCell id="w84LQEqxJyQ2vn-Dilfo-18" value="Follow" style="html=1;" parent="w84LQEqxJyQ2vn-Dilfo-17" vertex="1">
          <mxGeometry width="110" height="30" relative="1" as="geometry">
            <mxPoint x="20" y="50" as="offset" />
          </mxGeometry>
        </mxCell>
        <mxCell id="w84LQEqxJyQ2vn-Dilfo-28" style="edgeStyle=orthogonalEdgeStyle;rounded=0;orthogonalLoop=1;jettySize=auto;html=1;entryX=0.5;entryY=1;entryDx=0;entryDy=0;entryPerimeter=0;" parent="WIyWlLk6GJQsqaUBKTNV-1" source="w84LQEqxJyQ2vn-Dilfo-21" target="w84LQEqxJyQ2vn-Dilfo-2" edge="1">
          <mxGeometry relative="1" as="geometry" />
        </mxCell>
        <mxCell id="XMqn17-vr0BublxQVLz7-0" style="edgeStyle=orthogonalEdgeStyle;rounded=0;orthogonalLoop=1;jettySize=auto;html=1;exitX=0;exitY=0;exitDx=150;exitDy=65;exitPerimeter=0;entryX=0.5;entryY=1;entryDx=0;entryDy=0;entryPerimeter=0;" edge="1" parent="WIyWlLk6GJQsqaUBKTNV-1" source="w84LQEqxJyQ2vn-Dilfo-21" target="w84LQEqxJyQ2vn-Dilfo-0">
          <mxGeometry relative="1" as="geometry" />
        </mxCell>
        <mxCell id="w84LQEqxJyQ2vn-Dilfo-21" value="Ticket" style="shape=folder;fontStyle=1;tabWidth=110;tabHeight=30;tabPosition=left;html=1;boundedLbl=1;labelInHeader=1;container=1;collapsible=0;recursiveResize=0;" parent="WIyWlLk6GJQsqaUBKTNV-1" vertex="1">
          <mxGeometry x="526" y="410" width="150" height="100" as="geometry" />
        </mxCell>
        <mxCell id="w84LQEqxJyQ2vn-Dilfo-22" value="Ticket" style="html=1;" parent="w84LQEqxJyQ2vn-Dilfo-21" vertex="1">
          <mxGeometry width="110" height="30" relative="1" as="geometry">
            <mxPoint x="20" y="50" as="offset" />
          </mxGeometry>
        </mxCell>
        <mxCell id="w84LQEqxJyQ2vn-Dilfo-37" style="edgeStyle=orthogonalEdgeStyle;rounded=0;orthogonalLoop=1;jettySize=auto;html=1;exitX=0.5;exitY=1;exitDx=0;exitDy=0;exitPerimeter=0;entryX=0;entryY=0;entryDx=0;entryDy=65;entryPerimeter=0;" parent="WIyWlLk6GJQsqaUBKTNV-1" source="w84LQEqxJyQ2vn-Dilfo-34" target="w84LQEqxJyQ2vn-Dilfo-21" edge="1">
          <mxGeometry relative="1" as="geometry" />
        </mxCell>
        <mxCell id="w84LQEqxJyQ2vn-Dilfo-40" style="edgeStyle=orthogonalEdgeStyle;rounded=0;orthogonalLoop=1;jettySize=auto;html=1;exitX=0;exitY=0;exitDx=150;exitDy=65;exitPerimeter=0;entryX=0;entryY=0;entryDx=0;entryDy=65;entryPerimeter=0;" parent="WIyWlLk6GJQsqaUBKTNV-1" source="w84LQEqxJyQ2vn-Dilfo-34" target="w84LQEqxJyQ2vn-Dilfo-0" edge="1">
          <mxGeometry relative="1" as="geometry" />
        </mxCell>
        <mxCell id="w84LQEqxJyQ2vn-Dilfo-41" style="edgeStyle=orthogonalEdgeStyle;rounded=0;orthogonalLoop=1;jettySize=auto;html=1;exitX=0;exitY=0;exitDx=150;exitDy=65;exitPerimeter=0;entryX=0;entryY=0;entryDx=0;entryDy=65;entryPerimeter=0;" parent="WIyWlLk6GJQsqaUBKTNV-1" source="w84LQEqxJyQ2vn-Dilfo-34" target="w84LQEqxJyQ2vn-Dilfo-4" edge="1">
          <mxGeometry relative="1" as="geometry">
            <Array as="points">
              <mxPoint x="180" y="375" />
              <mxPoint x="180" y="305" />
            </Array>
          </mxGeometry>
        </mxCell>
        <mxCell id="w84LQEqxJyQ2vn-Dilfo-42" style="edgeStyle=orthogonalEdgeStyle;rounded=0;orthogonalLoop=1;jettySize=auto;html=1;exitX=0;exitY=0;exitDx=150;exitDy=65;exitPerimeter=0;entryX=0;entryY=0;entryDx=0;entryDy=65;entryPerimeter=0;" parent="WIyWlLk6GJQsqaUBKTNV-1" source="w84LQEqxJyQ2vn-Dilfo-34" target="w84LQEqxJyQ2vn-Dilfo-2" edge="1">
          <mxGeometry relative="1" as="geometry">
            <Array as="points">
              <mxPoint x="180" y="375" />
              <mxPoint x="180" y="205" />
            </Array>
          </mxGeometry>
        </mxCell>
        <mxCell id="w84LQEqxJyQ2vn-Dilfo-34" value="Reservation" style="shape=folder;fontStyle=1;tabWidth=110;tabHeight=30;tabPosition=left;html=1;boundedLbl=1;labelInHeader=1;container=1;collapsible=0;recursiveResize=0;" parent="WIyWlLk6GJQsqaUBKTNV-1" vertex="1">
          <mxGeometry y="310" width="150" height="100" as="geometry" />
        </mxCell>
        <mxCell id="w84LQEqxJyQ2vn-Dilfo-35" value="Reservation" style="html=1;" parent="w84LQEqxJyQ2vn-Dilfo-34" vertex="1">
          <mxGeometry width="110" height="30" relative="1" as="geometry">
            <mxPoint x="20" y="50" as="offset" />
          </mxGeometry>
        </mxCell>
      </root>
    </mxGraphModel>
  </diagram>
</mxfile>
